<svg xmlns="http://www.w3.org/2000/svg" viewBox="-130 0 520 540" role="img" aria-label="Chathuram king mascot">
  <title>Chathuram king mascot</title>
  <defs><mask id="l-king-h" maskUnits="userSpaceOnUse" x="-200" y="-40" width="700" height="620"><rect x="-200" y="-40" width="700" height="620" fill="#fff"/><path stroke="#000" d="M170 140 q20 8 40 1" fill="none" stroke-width="7" stroke-linecap="round"/><path stroke="#000" d="M100 80 H200" fill="none" stroke-width="8"/></mask><mask id="l-king-b" maskUnits="userSpaceOnUse" x="-200" y="-40" width="700" height="620"><rect x="-200" y="-40" width="700" height="620" fill="#fff"/><path d="M84 446 H216 Q234 446 234 464 V512 H66 V464 Q66 446 84 446 Z" fill="#000" stroke="#000" stroke-width="12" stroke-linejoin="round"/></mask></defs>
  <g fill="#fff" mask="url(#l-king-h)"><path d="M139 10 H161 V32 H183 V52 H161 V72 H139 V52 H117 V32 H139 Z"/><circle cx="150" cy="136" r="58"/></g><path d="M92 206 Q150 180 208 206 L210 234 Q150 210 90 234 Z" fill="#f1592a"/><path d="M112 250 Q150 240 188 250 Q200 360 226 490 L74 490 Q100 360 112 250 Z" fill="#fff" mask="url(#l-king-b)"/><path d="M84 446 H216 Q234 446 234 464 V512 H66 V464 Q66 446 84 446 Z" fill="#fff"/>
</svg>
